<svg width="237" height="46" viewBox="0 0 237 46" fill="none" xmlns="http://www.w3.org/2000/svg">
<g clip-path="url(#clip0_105_40)">
<path fill-rule="evenodd" clip-rule="evenodd" d="M9.40403 0L46.9633 0.119053C48.0579 0.10429 49.1271 0.447095 50.0065 1.09476C50.8859 1.74242 51.5268 2.65907 51.8306 3.70378C52.0132 4.34015 52.0739 5.0049 52.0096 5.66351L51.9917 5.84982L51.7816 5.72227L51.4913 5.55683L51.1963 5.40222L50.8959 5.25224L50.5908 5.10922L50.2795 4.97471L49.9682 4.84715L49.6483 4.7281L49.3246 4.61678L48.9961 4.51396L48.663 4.41964L48.326 4.33383L47.9844 4.25653L47.6396 4.18772L47.2909 4.12742L46.9383 4.0764L46.5819 4.03465L46.2215 4.00218L45.8589 3.97822L45.4923 3.9643L45.1133 3.95889L44.4689 3.97358L43.8182 4.01765L43.173 4.09031L42.5325 4.19159L41.8982 4.31992L41.2709 4.47453L40.6483 4.65543L40.0365 4.86261L39.4341 5.09453L38.8419 5.35042L38.2597 5.6295L37.6892 5.93254L37.1312 6.25646L36.5864 6.60279L36.054 6.96923L35.5365 7.35576L35.0329 7.7624L34.5449 8.18836L34.0725 8.63288L33.6172 9.09672C32.372 10.3097 31.6988 10.1249 30.9306 9.09672L30.5749 8.63288L30.199 8.18913L29.8029 7.76317L29.3873 7.35654L28.953 6.97L28.5 6.60357L28.033 6.25723L27.5451 5.93331L27.04 5.63104L26.5185 5.35119L25.9815 5.09531L25.4289 4.86339L24.8623 4.6562L24.2817 4.4753L23.6879 4.32069L23.0816 4.19236L22.4629 4.09109L21.8325 4.01842L21.1919 3.97435L20.5382 3.95967L19.8011 3.97899L19.0657 4.03543L18.3364 4.1282L17.6142 4.2573L16.9005 4.42119L16.2 4.61832L15.5066 4.85024L14.8248 5.11231L14.1555 5.40531L13.5001 5.72845L12.8596 6.0802L12.237 6.46055L11.6291 6.86796L11.0392 7.30088L10.4679 7.75931L9.91614 8.2417L9.38535 8.74884L8.87558 9.27762L8.38837 9.82882L7.9214 10.4009L7.48245 10.9931L7.06918 11.6038L6.68004 12.2331L6.32125 12.8801L5.99126 13.5426L5.69084 14.2206L5.42155 14.9164L5.18418 15.6222L4.97949 16.3404L4.80904 17.0694L4.67362 17.8084L4.57478 18.5444L4.5382 18.9309L4.51174 19.3043L4.49462 19.6746L4.48761 20.0426V20.4091L4.49851 20.7724L4.51874 21.1326L4.54832 21.4898L4.58645 21.8446L4.63315 22.1964L4.68841 22.5443L4.75301 22.8883L4.82539 23.2292L4.90321 23.5663L4.99272 23.8995L5.09 24.2288L5.19585 24.5543L5.30948 24.8751L5.43089 25.192L5.56009 25.5013L5.69706 25.8105L5.84105 26.1135L5.9967 26.4119L6.15236 26.7057L6.31891 26.9941L6.49247 27.277L6.67303 27.5553L6.85982 27.8274L7.05439 28.0949L7.25519 28.3562L7.46299 28.6129L7.71282 28.9051L16.8265 37.6671C17.741 38.1951 18.4516 38.495 19.8914 37.5225L22.5282 35.3409C22.7214 35.1673 22.8779 34.9571 22.9884 34.7228C23.099 34.4884 23.1614 34.2345 23.172 33.9759C23.1827 33.7173 23.1414 33.4592 23.0505 33.2167C22.9596 32.9741 22.8209 32.752 22.6426 32.5633L13.3032 23.4874L13.2021 23.363L13.1024 23.2331L13.0067 23.1009L12.9141 22.9648L12.8246 22.8272L12.739 22.6873L12.6565 22.545L12.5787 22.3997L12.5008 22.2521L12.43 22.1029L12.3631 21.9482L12.2993 21.7936L12.2393 21.639L12.1841 21.4844L12.1319 21.3251L12.0844 21.1643L12.0409 21.002L12.0012 20.8373L11.9654 20.6711L11.9342 20.5034L11.907 20.3341L11.8836 20.1617L11.8657 19.9885L11.8517 19.8146L11.8416 19.6391L11.8362 19.4613V19.101L11.8447 18.9178L11.858 18.733L11.8728 18.5784L11.9265 18.1726L11.9934 17.8084L12.0774 17.4513L12.1771 17.1011L12.293 16.7571L12.4246 16.4192L12.5709 16.0884L12.732 15.7644L12.9079 15.4483L13.0978 15.139L13.3017 14.8383L13.518 14.5461L13.7469 14.2631L13.9889 13.9903L14.2418 13.7274L14.5049 13.4762L14.7789 13.2365L15.0629 13.0092L15.3556 12.7943L15.6568 12.5925L15.9681 12.4055L16.2841 12.2323L16.6063 12.0738L16.9339 11.9308L17.267 11.8025L17.6056 11.6896L17.9496 11.5937L18.2975 11.5164L18.65 11.4538L19.0073 11.4074L19.3723 11.3827L19.7474 11.3726L20.0587 11.3796L20.3747 11.4012L20.686 11.4368C23.4457 11.892 25.9165 13.4017 27.57 15.6431C29.1787 17.4799 31.2489 19.9344 35.517 15.916C37.4654 13.8177 39.9675 12.3046 42.7387 11.5489L43.05 11.4863L43.3614 11.4368L43.6781 11.4012L43.9988 11.3796L44.349 11.3719H44.5047L44.6868 11.3788L44.8658 11.3904L45.0424 11.4067L45.2168 11.4275L45.3896 11.4523L45.56 11.4816L45.7281 11.5149L45.8947 11.5528L46.0589 11.5945L46.2215 11.6409L46.3811 11.6911L46.5368 11.7453L46.6924 11.8032L46.8481 11.8659L46.9998 11.9316L47.1493 12.0011L47.2964 12.0784L47.4419 12.1558L47.5843 12.2369L47.7244 12.3212L47.8622 12.4101L47.9984 12.5021L48.1307 12.5972L48.2599 12.6961L48.3875 12.799L48.512 12.9049L48.6334 13.0139L48.7517 13.126L48.8677 13.2419L48.9813 13.361L49.0903 13.4816L49.1961 13.6053L49.2997 13.7328L49.3993 13.8627L49.4958 13.9949L49.5884 14.1302L49.6779 14.2686L49.7643 14.4093L49.8468 14.5515L49.9246 14.6961L50.0025 14.8445L50.0741 14.9937L50.141 15.1483L50.204 15.3029L50.264 15.4575L50.3192 15.6122L50.3706 15.7714L50.4181 15.9322L50.4616 16.0953L50.5013 16.26L50.5371 16.4254L50.5683 16.5932L50.5955 16.7633L50.6189 16.9356L50.6375 17.108L50.6515 17.282L50.6617 17.4582L50.6671 17.6361V17.9955L50.6585 18.1787L50.6453 18.3635L50.6274 18.5498L50.6048 18.7354L50.5776 18.9201L50.5465 19.1033L50.5107 19.2842L50.471 19.4636L50.4266 19.6414L50.3791 19.8177L50.327 19.9916L50.271 20.164L50.211 20.3356L50.1472 20.5057L50.0795 20.6734L50.0079 20.8397L49.9301 21.0043L49.8522 21.1674L49.7697 21.3282L49.6834 21.4875L49.5939 21.6421L49.5005 21.7967L49.404 21.9513L49.3043 22.1059L49.2008 22.2551L49.0942 22.4028L48.9837 22.5481L48.8708 22.6912L48.7549 22.8311L48.6358 22.9687L48.5136 23.104L48.3883 23.2362L48.2607 23.366L48.1346 23.489L27.5365 40.0791C25.5028 41.5386 26.643 43.4806 27.77 43.5099L32.5502 43.4953C34.394 43.5679 34.8773 42.7771 36.5467 41.5092L49.5946 31.2274L48.7198 40.4857C48.5515 41.9825 47.8405 43.3674 46.7195 44.3817C45.5985 45.396 44.1443 45.9704 42.6282 45.9977L5.06899 45.8786C4.35693 45.8874 3.65116 45.7454 2.99859 45.4623C2.34603 45.1791 1.76161 44.7613 1.28419 44.2364C0.806764 43.7116 0.447278 43.0919 0.229623 42.4184C0.0119672 41.7449 -0.0588714 41.0331 0.0218157 40.3303L3.31007 5.51044C3.47883 4.01348 4.19034 2.6287 5.31175 1.61467C6.43316 0.600642 7.88779 0.0266959 9.40403 0Z" fill="white"/>
<path fill-rule="evenodd" clip-rule="evenodd" d="M135.943 20.5536C136.118 21.8198 136.138 23.1026 136 24.3734L134.498 40.8359C134.494 41.1231 134.428 41.406 134.305 41.6663C134.183 41.9265 134.007 42.1581 133.788 42.3461C133.569 42.5341 133.313 42.6742 133.036 42.7573C132.76 42.8403 132.468 42.8644 132.182 42.8281C130.503 42.8714 128.825 42.7314 127.178 42.4106C126.784 42.3194 126.398 42.1998 126.022 42.0527C125.824 41.9754 125.616 41.878 125.412 41.8208C125.086 41.7508 124.748 41.7582 124.426 41.8424C123.35 42.078 122.289 42.3772 121.249 42.7384C119.951 43.1431 118.597 43.3437 117.236 43.3329C114.468 43.3329 111.783 42.6735 109.745 40.7107C109.587 40.556 109.435 40.3965 109.289 40.2321C105.993 41.7257 100.237 43.7983 97.2583 41.3477C95.5142 39.9129 95.3796 37.4529 95.5523 35.3765L96.2575 27.7811C96.3703 26.5643 96.4248 24.8248 95.7127 23.7696C95.3449 23.3177 94.8704 22.9633 94.3312 22.7379C93.7921 22.5125 93.2052 22.4231 92.6229 22.4778C91.9826 22.4533 91.3446 22.5659 90.752 22.8078C90.1594 23.0498 89.6261 23.4155 89.1883 23.8801C88.3028 24.9658 87.7947 26.3068 87.7399 27.703L86.518 41.4984C86.4836 41.8652 86.308 42.2047 86.028 42.4462C85.7479 42.6877 85.3848 42.8126 85.0144 42.7949L77.8129 42.7856C77.617 42.8074 77.4186 42.7851 77.2325 42.7205C77.0465 42.6559 76.8774 42.5505 76.7378 42.4123C76.5982 42.274 76.4917 42.1063 76.4261 41.9216C76.3606 41.737 76.3377 41.54 76.3591 41.3454L77.5631 27.7556C77.6705 26.5418 77.7242 24.8024 77.0183 23.751C76.6501 23.2987 76.1751 22.9437 75.6355 22.7176C75.0959 22.4916 74.5085 22.4015 73.9254 22.4554C73.2852 22.4309 72.6472 22.5435 72.0547 22.7856C71.4622 23.0277 70.9291 23.3936 70.4916 23.8585C69.6059 24.9437 69.0977 26.2846 69.0432 27.6806L67.8213 41.4737C67.8053 41.8336 67.6462 42.1726 67.3789 42.4161C67.1116 42.6596 66.7579 42.7877 66.3955 42.7724H66.3807L59.0181 42.7632C58.8332 42.7653 58.6498 42.7296 58.4794 42.6582C58.309 42.5868 58.1553 42.4813 58.0278 42.3483C57.9003 42.2152 57.8017 42.0575 57.7383 41.8849C57.6749 41.7124 57.648 41.5287 57.6592 41.3454V41.3314L59.9022 16.0203V16.0049C59.947 15.5467 60.1725 15.1248 60.5295 14.8313C60.8865 14.5378 61.346 14.3967 61.8075 14.4386H61.8293C65.2911 14.5283 67.3224 15.1514 69.9732 17.4536L70.4558 17.8734L70.9282 17.4405C72.1219 16.347 73.507 15.4798 75.015 14.8816C76.5124 14.2923 78.109 13.9911 79.7197 13.9941C81.2661 13.9584 82.8007 14.2691 84.2096 14.9033C85.4544 15.5118 86.5074 16.4476 87.2543 17.609L87.7103 18.2947L88.3275 17.7466C91.0404 15.3289 94.5608 13.9984 98.2055 14.0135C100.655 14.0135 103.32 14.4989 105.048 16.376C106.776 18.253 107.038 20.9371 106.815 23.3591C106.471 27.0956 106.128 30.8321 105.785 34.5686C105.78 34.6235 105.767 34.9049 105.825 34.9482C105.973 35.0587 106.47 34.9907 106.637 34.9582C106.893 34.9051 107.144 34.8317 107.388 34.7387C107.396 34.0555 107.477 33.3752 107.631 32.7094C107.729 32.2848 107.853 31.8666 108.002 31.457C108.65 29.6948 109.813 28.1652 111.342 27.0644C113.996 25.2203 117.185 24.293 120.421 24.4252C121.245 24.4308 122.066 24.5283 122.868 24.7158H122.879C124.075 25.011 125.214 25.5036 126.246 26.1731L126.471 24.1507C126.584 23.5118 126.492 22.8539 126.208 22.2697C125.924 21.6855 125.463 21.2046 124.889 20.8946C123.468 20.1362 120.951 20.0759 119.351 20.0736C117.923 20.0736 116.494 20.1029 115.066 20.1849C114.52 20.2158 113.974 20.2503 113.427 20.2885H113.416C113.17 20.3098 112.923 20.2717 112.696 20.1776C112.469 20.0835 112.268 19.9361 112.111 19.748C111.953 19.56 111.844 19.3369 111.793 19.0978C111.741 18.8587 111.749 18.6107 111.815 18.3751L112.418 16.3334C112.521 15.9357 112.757 15.5846 113.088 15.338C113.419 15.0913 113.824 14.9636 114.237 14.9759C115.638 14.8739 117.031 14.7347 118.43 14.6574C119.881 14.5663 121.335 14.5204 122.788 14.5198C125.888 14.5237 131.364 14.727 133.875 16.6164C134.623 17.1974 135.189 17.9784 135.506 18.8676L135.783 15.7111V15.7026C135.778 15.5155 135.812 15.3292 135.884 15.1561C135.956 14.983 136.063 14.8269 136.2 14.6982C136.337 14.5694 136.5 14.4708 136.678 14.4089C136.856 14.347 137.045 14.3231 137.233 14.3389L141.307 14.3436L141.979 6.97001L141.984 6.92285L141.993 6.87647C142.191 5.92714 142.71 5.23524 143.783 5.29013L150.782 5.30946C151.015 5.29153 151.249 5.32688 151.466 5.41278C151.683 5.49867 151.878 5.63284 152.035 5.80499C152.306 6.18947 152.416 6.66338 152.342 7.12694V7.15787L151.664 14.3559L156.866 14.3621H156.887C157.099 14.3452 157.311 14.3775 157.507 14.4562C157.704 14.535 157.879 14.6581 158.02 14.8159C158.136 14.9886 158.212 15.1845 158.243 15.3897C158.274 15.5949 158.259 15.8044 158.2 16.0033L157.901 19.275C157.914 19.4706 157.886 19.6669 157.817 19.8508C157.749 20.0348 157.642 20.2024 157.504 20.3425C157.366 20.4827 157.2 20.5922 157.016 20.6641C156.832 20.7359 156.635 20.7683 156.438 20.7593H156.424L151.083 20.7531L149.915 30.8246C149.719 32.3978 149.856 34.5957 151.369 35.5257C151.838 35.7684 152.356 35.9004 152.885 35.9114C153.413 35.9224 153.936 35.8121 154.415 35.5891L155.865 34.8369C155.227 33.0247 155.003 31.0939 155.21 29.185C155.389 27.0925 156.038 25.0666 157.109 23.2563L157.115 23.2462L157.324 22.9076C158.385 21.2708 159.721 19.8273 161.274 18.6403C164.996 15.7372 169.617 14.2071 174.349 14.3111C177.66 14.2214 180.924 15.1132 183.723 16.873C185.389 17.9525 186.768 19.4167 187.742 21.1404L188.156 16.5955L188.204 16.4795C188.403 15.9376 188.773 15.474 189.258 15.1579C189.744 14.8418 190.32 14.6901 190.899 14.7255H190.908L196.557 14.7324H196.574C196.865 14.7215 197.155 14.7694 197.427 14.8732C197.698 14.977 197.946 15.1345 198.154 15.3362C198.322 15.5381 198.439 15.7759 198.498 16.0309C198.557 16.2858 198.556 16.5508 198.494 16.805L197.319 29.6813C197.209 30.8973 197.17 32.5942 197.887 33.6471C198.248 34.1026 198.718 34.4614 199.254 34.6909C199.79 34.9203 200.376 35.0133 200.957 34.9613C201.611 34.9956 202.266 34.8944 202.878 34.6641C203.491 34.4339 204.049 34.0797 204.517 33.6239C205.424 32.5322 205.944 31.1735 205.996 29.7586L207.182 16.7548V16.7408C207.2 16.2303 207.407 15.7443 207.764 15.3762C208.12 15.008 208.601 14.7837 209.114 14.7463H209.134L215.911 14.7548L215.953 14.7587C216.209 14.7707 216.459 14.8405 216.684 14.9627C216.909 15.085 217.103 15.2566 217.252 15.4645C217.514 15.9245 217.608 16.4605 217.516 16.9813L215.939 34.7557C217.281 35.2647 218.701 35.5393 220.138 35.5674C221.056 35.5998 221.964 35.3728 222.757 34.9126C223.111 34.7104 223.41 34.4276 223.631 34.0877C223.853 33.7477 223.989 33.3603 224.03 32.9575C224.165 31.4848 222.147 29.7802 221.119 28.9376C220.761 28.6515 220.405 28.3624 220.044 28.0795L220.027 28.0671L220.012 28.054C219.197 27.3777 218.54 26.5336 218.087 25.5801C217.691 24.7007 217.534 23.7333 217.632 22.7747C217.736 21.5281 218.148 20.3264 218.833 19.2764C219.517 18.2265 220.452 17.3608 221.555 16.7563C224.477 14.9697 228.184 14.4897 231.559 14.4943C232.393 14.4943 233.226 14.5368 234.056 14.6103C234.489 14.6481 234.923 14.6829 235.354 14.7417C235.613 14.755 235.867 14.8249 236.096 14.9463C236.325 15.0678 236.524 15.2379 236.68 15.4445C236.835 15.6511 236.943 15.8892 236.995 16.1418C237.048 16.3944 237.043 16.6554 236.983 16.9063L236.651 19.9514C236.642 20.1973 236.579 20.4383 236.465 20.6566C236.351 20.875 236.189 21.0651 235.991 21.2131C235.48 21.5142 234.877 21.621 234.293 21.5138C233.642 21.455 232.989 21.4249 232.335 21.4233C231.471 21.3916 230.613 21.5814 229.844 21.9745C229.504 22.1513 229.213 22.4089 228.996 22.7243C228.78 23.0397 228.646 23.4033 228.605 23.7827C228.576 24.3143 228.722 24.8408 229.023 25.2817C229.502 25.9301 230.055 26.5206 230.673 27.0412C232.026 28.2248 233.762 29.8336 234.573 31.4377C235.141 32.6071 235.367 33.911 235.227 35.2018C235.15 36.3845 234.788 37.5315 234.17 38.5457C233.553 39.5599 232.699 40.4114 231.68 41.0284C229.065 42.7206 225.682 43.1713 222.619 43.1683C220.925 43.1323 219.238 42.9327 217.583 42.5722C215.901 42.2619 214.258 41.7693 212.684 41.1034C210.637 40.556 208.576 39.6469 206.448 39.4954C205.586 39.4507 204.738 39.717 204.058 40.2453L204.026 40.2692L204 40.2932C202.873 41.304 201.557 42.0865 200.128 42.597C198.582 43.1275 196.955 43.3875 195.32 43.3654C192.857 43.3654 190.09 42.9093 188.328 41.0377C186.594 39.1947 186.342 36.5175 186.56 34.1171L187.488 23.9482C187.241 24.2157 186.943 24.4309 186.61 24.5806L167.943 34.8964C172.757 36.8492 176.979 36.8677 181.837 34.1334C182.144 33.9838 182.488 33.9235 182.828 33.9592C183.169 33.9948 183.492 34.1252 183.762 34.3352C184.068 34.5498 184.307 34.8457 184.451 35.189C184.596 35.5323 184.641 35.9091 184.58 36.2763C184.52 36.6435 184.462 37.0107 184.429 37.3803C184.394 37.78 184.364 38.1765 184.322 38.5754V38.611C183.963 41.0075 180.97 42.1022 178.898 42.5761C176.473 43.1309 173.992 43.4054 171.504 43.394C167.134 43.3886 162.704 42.4787 159.302 39.5959C155.839 41.3886 152.169 42.8768 148.199 42.8729C145.883 42.958 143.119 42.7268 141.382 41.0176C139.413 39.0756 139.367 35.8024 139.601 33.2358L140.741 20.743L136.684 20.7384H136.615L136.546 20.7268C136.343 20.7001 136.144 20.6422 135.959 20.5552L135.943 20.5536ZM164.83 30.183L176.749 23.4457L176.791 23.4279C177.777 23.0035 177.848 22.4925 176.957 21.8818C173.933 19.8022 170.231 20.7438 167.44 22.7406C164.856 24.5891 164.186 27.202 164.83 30.183ZM124.67 36.0521C125.111 35.7373 125.48 35.3335 125.754 34.8673C126.027 34.401 126.198 33.8828 126.256 33.3464C126.304 32.8259 126.227 32.3014 126.031 31.8161C125.835 31.3309 125.526 30.8989 125.129 30.5556C124.301 29.8016 123.211 29.3947 122.087 29.42C120.949 29.4122 119.843 29.7945 118.956 30.5023C118.516 30.8184 118.148 31.2232 117.876 31.6902C117.604 32.1573 117.435 32.6761 117.379 33.2127C117.321 33.7334 117.391 34.2602 117.582 34.7485C117.772 35.2369 118.079 35.6723 118.475 36.0181C119.309 36.7549 120.395 37.1456 121.51 37.1097C122.651 37.119 123.763 36.748 124.666 36.056L124.67 36.0521Z" fill="white"/>
<path fill-rule="evenodd" clip-rule="evenodd" d="M136.257 19.7473L136.299 19.7891C136.414 19.8484 136.54 19.8856 136.67 19.8988L140.851 19.9043H141.646L140.423 33.3062C140.216 35.5721 140.203 38.6875 141.96 40.4185C143.505 41.9414 146.107 42.1107 148.155 42.0349H148.183C152.032 42.0396 155.61 40.5607 158.967 38.8174L159.405 38.5901L159.779 38.911C163.028 41.694 167.305 42.5514 171.491 42.556C173.914 42.5671 176.33 42.3002 178.692 41.7605C180.586 41.3276 183.194 40.369 183.475 38.4858C183.61 37.2187 183.536 37.3942 183.74 36.1411C183.772 35.9463 183.754 35.7467 183.686 35.5612C183.618 35.3758 183.503 35.2108 183.353 35.082C183.202 34.9532 183.021 34.865 182.826 34.8257C182.631 34.7864 182.43 34.7975 182.241 34.8578C176.715 37.9709 171.857 37.7297 166.052 34.9791L186.219 23.8338L186.243 23.8222C186.557 23.6884 186.823 23.4653 187.008 23.1813L187.394 22.5628L187.124 21.8091C187.096 21.7291 187.061 21.6515 187.019 21.5772C186.11 19.9558 184.816 18.5793 183.25 17.5673C180.589 15.899 177.488 15.0558 174.342 15.1452C169.8 15.043 165.364 16.5109 161.791 19.2982C160.312 20.4253 159.039 21.7966 158.028 23.3522L157.826 23.6815C156.817 25.385 156.207 27.2921 156.041 29.2615C155.839 31.0774 156.057 32.9151 156.68 34.6343L156.913 35.2342L154.758 36.3506L154.719 36.366C154.12 36.6389 153.465 36.769 152.806 36.7462C152.147 36.7234 151.503 36.5482 150.924 36.2346C149.091 35.1075 148.838 32.6491 149.078 30.7226L150.259 20.5575L150.336 19.9166H150.986L156.427 19.9228C156.922 19.9143 157.029 19.6801 157.066 19.2031L157.365 15.9199V15.8905L157.371 15.8603C157.465 15.3277 157.42 15.2094 156.865 15.1939L151.539 15.1878H150.741L150.819 14.3985L151.508 7.07825C151.544 6.44665 151.477 6.14206 150.786 6.14283L143.782 6.12351H143.746C143.123 6.09104 142.937 6.50077 142.824 7.04501L142.143 14.5206L142.083 15.1785H141.417L137.24 15.1731C136.814 15.1731 136.655 15.3331 136.629 15.7583V15.7768L136.309 19.4103V19.428L136.264 19.7489L136.257 19.7473ZM188.63 20.5583L187.385 34.1921C187.19 36.3359 187.376 38.8151 188.93 40.4664C190.514 42.1494 193.1 42.5274 195.312 42.5297C196.85 42.5515 198.38 42.3082 199.835 41.8107C201.162 41.3368 202.383 40.6099 203.43 39.6709L203.489 39.6183L203.556 39.5704C204.395 38.9256 205.44 38.6034 206.5 38.6628C208.723 38.8174 210.773 39.7312 212.903 40.2994L212.962 40.3156L213.017 40.3411C216.075 41.5516 219.321 42.2254 222.611 42.3326C225.496 42.3326 228.747 41.9236 231.212 40.328C232.123 39.7801 232.887 39.0212 233.438 38.1162C233.989 37.2113 234.312 36.1872 234.378 35.1314C234.504 33.9948 234.307 32.8459 233.809 31.815C233.07 30.3515 231.34 28.7528 230.101 27.6682C229.43 27.1001 228.83 26.4558 228.31 25.7487L228.303 25.7378L228.297 25.7278C227.898 25.1339 227.706 24.4259 227.752 23.7132C227.805 23.2004 227.983 22.7082 228.272 22.2799C228.56 21.8517 228.95 21.5004 229.408 21.2571C230.304 20.7884 231.308 20.5595 232.321 20.5931C232.999 20.5931 233.678 20.6263 234.353 20.6866C235.075 20.75 235.737 20.7307 235.799 19.8795L236.134 16.8089C236.237 16.0783 235.968 15.6732 235.225 15.572C234.808 15.5148 234.388 15.4815 233.968 15.4452C233.162 15.3724 232.353 15.3348 231.543 15.3323C228.337 15.3323 224.759 15.7737 221.981 17.4706C220.99 18.0073 220.149 18.7801 219.533 19.7198C218.918 20.6594 218.547 21.7363 218.454 22.8535C218.37 23.669 218.502 24.4923 218.839 25.2408C219.244 26.083 219.828 26.828 220.551 27.4247C220.914 27.7084 221.273 27.9999 221.637 28.2905C222.952 29.3728 225.023 31.171 224.853 33.0341C224.801 33.5647 224.624 34.0755 224.335 34.5248C224.046 34.9741 223.654 35.3492 223.192 35.6192C222.265 36.1651 221.2 36.437 220.123 36.4031C218.561 36.375 217.017 36.0743 215.561 35.5149L215.03 35.3278L216.664 16.9094C216.725 16.2252 216.679 15.6725 215.853 15.5952L209.14 15.5867C208.457 15.6184 208.088 16.1649 208.002 16.8499L206.817 29.8374C206.753 31.4377 206.155 32.9713 205.117 34.1968C204.571 34.736 203.918 35.1567 203.2 35.432C202.482 35.7073 201.714 35.8314 200.944 35.7963C200.225 35.8521 199.504 35.7274 198.846 35.4337C198.188 35.14 197.615 34.6868 197.179 34.1156C196.332 32.8725 196.339 31.0512 196.47 29.6071L197.648 16.6929L197.655 16.6612C197.81 15.8302 197.287 15.6029 196.526 15.5689L190.896 15.5619C190.482 15.5254 190.068 15.6273 189.719 15.8514C189.371 16.0755 189.107 16.409 188.971 16.7988L188.627 20.5668L188.63 20.5583ZM105.985 23.281C106.185 21.1095 105.985 18.6233 104.435 16.9372C102.885 15.2511 100.406 14.8499 98.2086 14.8461C94.7708 14.8319 91.4504 16.0869 88.8917 18.3674L87.5492 19.5587L86.5577 18.0659C85.8943 17.0288 84.9569 16.1926 83.8477 15.6485C82.5522 15.0704 81.1426 14.7885 79.7228 14.8236C78.2183 14.8204 76.727 15.1019 75.3286 15.6531C73.916 16.2126 72.6189 17.0249 71.5017 18.0497L70.4744 18.9905L69.4229 18.0767C66.846 15.8348 64.9603 15.3478 61.8113 15.2658C61.6851 15.2471 61.5563 15.2543 61.433 15.2869C61.3097 15.3195 61.1944 15.3769 61.0943 15.4555C60.9941 15.5341 60.9113 15.6322 60.8508 15.7439C60.7904 15.8555 60.7536 15.9783 60.7427 16.1046L58.5013 41.4003C58.4976 41.4707 58.509 41.5411 58.5347 41.6068C58.5604 41.6725 58.5999 41.7321 58.6505 41.7816C58.7011 41.831 58.7617 41.8693 58.8283 41.8937C58.8949 41.9182 58.9659 41.9284 59.0368 41.9236L66.3853 41.9329C66.4608 41.9417 66.5373 41.9346 66.6098 41.9119C66.6823 41.8893 66.7491 41.8516 66.8059 41.8014C66.8626 41.7513 66.9081 41.6897 66.9391 41.6208C66.9702 41.5519 66.9862 41.4773 66.9861 41.4018L68.208 27.6025C68.2766 26.0253 68.8598 24.5131 69.8697 23.2942C70.3863 22.7426 71.016 22.3073 71.7163 22.0178C72.4165 21.7283 73.1711 21.5912 73.9292 21.6158C74.6503 21.5584 75.3743 21.6805 76.0359 21.9712C76.6974 22.2618 77.2756 22.7117 77.7179 23.2803C78.553 24.5272 78.5281 26.3834 78.4005 27.8251L77.1957 41.4157C77.1669 41.7188 77.3311 41.9569 77.8051 41.9468L85.0237 41.9553C85.1818 41.9698 85.3392 41.9219 85.462 41.8219C85.5848 41.7219 85.663 41.578 85.6798 41.4211L86.9017 27.6257C86.97 26.0483 87.5533 24.5358 88.5633 23.3166C89.0802 22.7653 89.7099 22.3304 90.4101 22.041C91.1103 21.7516 91.8648 21.6146 92.6228 21.639C93.3434 21.5804 94.0674 21.7018 94.7287 21.9921C95.39 22.2824 95.9677 22.7324 96.4092 23.3011C97.2521 24.5504 97.2272 26.4081 97.0933 27.8537L96.3882 35.4476C96.2418 37.2087 96.2987 39.4676 97.7937 40.7045C99.8072 42.3612 104.02 41.803 109.533 39.197C109.772 39.5241 110.039 39.8301 110.331 40.1115C112.206 41.9167 114.69 42.4941 117.237 42.4972C118.51 42.5079 119.777 42.3208 120.991 41.9429C128.168 39.6492 123.155 41.9839 132.209 41.9947C132.387 42.0282 132.57 42.022 132.746 41.9764C132.921 41.9308 133.084 41.847 133.223 41.7311C133.361 41.6152 133.472 41.4701 133.548 41.3063C133.623 41.1425 133.661 40.9641 133.658 40.7841L135.161 24.2999C135.304 23.0132 135.273 21.7131 135.068 20.4346L134.99 19.9993L134.874 19.6128C134.639 18.6984 134.113 17.8835 133.375 17.289C131.065 15.5503 125.638 15.3648 122.795 15.3617C121.36 15.3617 119.923 15.4096 118.488 15.4978C117.096 15.5751 115.7 15.7134 114.307 15.8155C113.763 15.8549 113.373 16.0281 113.237 16.5623L112.631 18.6148C112.603 18.7222 112.602 18.8347 112.628 18.9426C112.654 19.0505 112.706 19.1505 112.78 19.2339C112.853 19.3172 112.946 19.3816 113.051 19.4212C113.155 19.4608 113.267 19.4746 113.378 19.4613C113.927 19.4232 114.477 19.3884 115.027 19.3569C116.471 19.2772 117.916 19.2395 119.362 19.2441C121.134 19.2441 123.72 19.3214 125.295 20.164C126.016 20.551 126.598 21.1512 126.961 21.8814C127.324 22.6116 127.449 23.4357 127.319 24.2396L127.068 26.4815C126.976 27.1719 126.506 27.2546 125.954 26.9748C124.327 25.8636 122.402 25.2657 120.428 25.2593C117.374 25.1295 114.362 25.9986 111.854 27.7331C110.457 28.736 109.394 30.1312 108.801 31.7392C108.664 32.1185 108.549 32.5057 108.459 32.8988C108.279 33.6655 108.207 34.4533 108.245 35.2397V35.2574C107.617 35.6525 104.752 36.6876 104.956 34.4975C105.298 30.761 105.641 27.0245 105.985 23.288V23.281ZM121.515 37.9377C120.188 37.9742 118.898 37.5038 117.909 36.6234C117.418 36.1908 117.037 35.6478 116.799 35.0396C116.562 34.4314 116.474 33.7757 116.543 33.1269C116.609 32.4767 116.812 31.8476 117.139 31.2804C117.466 30.7132 117.909 30.2205 118.44 29.8343C119.476 29.0122 120.764 28.5687 122.09 28.5781C123.424 28.554 124.716 29.0394 125.7 29.9341C126.191 30.3641 126.574 30.9033 126.816 31.5078C127.058 32.1123 127.153 32.765 127.094 33.4129C127.026 34.0641 126.821 34.6938 126.492 35.2611C126.163 35.8284 125.718 36.3205 125.185 36.7054C124.134 37.5103 122.841 37.9423 121.514 37.9323L121.515 37.9377ZM177.126 24.1917L164.262 31.4624L164.044 30.5139C163.275 27.168 164.002 24.1677 166.949 22.0596C170.034 19.8517 174.104 18.9008 177.436 21.1914C178.886 22.1887 178.715 23.5106 177.124 24.1917H177.126Z" fill="white"/>
<path d="M66.4623 4.52865C66.4623 4.5619 66.4678 4.60596 66.4685 4.6593C66.4693 4.71264 66.4685 4.77062 66.4607 4.8317C66.453 4.89277 66.4467 4.95539 66.4358 5.01723C66.4264 5.07441 66.4115 5.13058 66.3915 5.18499C66.376 5.22927 66.3534 5.27078 66.3245 5.30791C66.315 5.32176 66.3024 5.33322 66.2877 5.34141C66.273 5.34959 66.2566 5.35426 66.2397 5.35507C66.1592 5.34493 66.0824 5.31576 66.0156 5.27003C65.9175 5.21334 65.7914 5.14994 65.6373 5.07985C65.4574 5.00083 65.2709 4.9372 65.0801 4.88968C64.8308 4.82927 64.5747 4.8007 64.3181 4.80464C64.0508 4.80083 63.7847 4.84213 63.5313 4.92678C63.3047 5.00446 63.0921 5.11774 62.9017 5.2623C62.7172 5.40325 62.5565 5.57233 62.4253 5.76325C62.2927 5.95533 62.1848 6.16308 62.1039 6.3817C62.0221 6.60321 61.9675 6.8337 61.9412 7.06819C61.9142 7.30105 61.9124 7.53612 61.9358 7.76936C61.9558 8.00375 62.0175 8.23277 62.1179 8.4458C62.2072 8.63228 62.335 8.79797 62.4931 8.93206C62.6533 9.06517 62.8384 9.16553 63.0379 9.22737C63.2599 9.29642 63.4916 9.33034 63.7243 9.32787C63.8896 9.3279 64.0544 9.31106 64.2162 9.27762C64.369 9.24677 64.5171 9.19609 64.6567 9.12687L64.8123 7.62867H63.5624C63.5429 7.629 63.5236 7.62493 63.506 7.61676C63.4883 7.60859 63.4727 7.59654 63.4605 7.58151C63.4283 7.53614 63.4105 7.48234 63.4091 7.42689C63.4066 7.38338 63.4066 7.33976 63.4091 7.29624C63.4091 7.2429 63.4145 7.18647 63.42 7.12849C63.4254 7.07051 63.4348 7.01098 63.4457 6.95068C63.4553 6.89572 63.4712 6.84203 63.4932 6.79066C63.5112 6.74863 63.5359 6.70974 63.5663 6.67547C63.5784 6.66137 63.5934 6.65006 63.6104 6.64232C63.6273 6.63457 63.6457 6.63059 63.6644 6.63063H65.9035C65.9514 6.62711 65.9994 6.63528 66.0433 6.65441C66.0873 6.67354 66.1258 6.70307 66.1557 6.74041C66.2149 6.832 66.2374 6.94235 66.2187 7.04964L65.951 9.64483C65.9454 9.70032 65.9336 9.75502 65.9159 9.80795C65.9005 9.85274 65.8771 9.89439 65.8467 9.93087C65.7748 9.99419 65.691 10.0426 65.6 10.0731C65.4424 10.1373 65.281 10.1918 65.1167 10.2362C64.9048 10.2941 64.6896 10.3393 64.4722 10.3715C64.2281 10.4087 63.9814 10.427 63.7344 10.4264C63.3051 10.4323 62.877 10.3784 62.4627 10.2664C62.1142 10.1719 61.7882 10.0092 61.5039 9.78785C61.2382 9.5763 61.0214 9.31056 60.868 9.0086C60.703 8.67602 60.6019 8.31579 60.5699 7.9464C60.5332 7.59302 60.5374 7.23663 60.5824 6.8842C60.625 6.54471 60.7116 6.21212 60.84 5.89467C60.9656 5.58417 61.134 5.29251 61.3404 5.02806C61.5496 4.76025 61.8008 4.52766 62.0845 4.33925C62.3879 4.1388 62.7204 3.98576 63.0705 3.88546C63.4699 3.77264 63.8835 3.7177 64.2987 3.72234C64.5375 3.72141 64.776 3.74054 65.0116 3.77955C65.2182 3.81352 65.4225 3.86026 65.6233 3.91947C65.7819 3.96576 65.9363 4.02524 66.0848 4.09728C66.1739 4.13844 66.2589 4.18788 66.3386 4.24494C66.3783 4.27596 66.4096 4.31636 66.4296 4.36244C66.4488 4.41592 66.4598 4.47194 66.4623 4.52865ZM74.5712 5.2507C74.5934 5.46285 74.5852 5.67704 74.5471 5.88694C74.509 6.09724 74.4333 6.29909 74.3238 6.48298C74.2058 6.67827 74.0522 6.84999 73.8708 6.98934C73.6551 7.15201 73.4114 7.27435 73.1517 7.35036C73.338 7.4267 73.4958 7.55884 73.6031 7.72839C73.7571 7.96818 73.876 8.22847 73.9564 8.50146L74.3627 9.81568C74.3834 9.88938 74.4013 9.95535 74.4164 10.0136C74.429 10.0621 74.4384 10.1115 74.4444 10.1612C74.4465 10.1763 74.4455 10.1916 74.4413 10.2063C74.4372 10.2209 74.43 10.2345 74.4203 10.2463C74.3885 10.2761 74.3488 10.2962 74.3059 10.3043C74.2291 10.3219 74.151 10.3328 74.0724 10.3367C73.9722 10.3434 73.8454 10.3468 73.6918 10.3468C73.5481 10.3468 73.4324 10.3427 73.3447 10.3344C73.2745 10.3297 73.2052 10.3162 73.1384 10.2942C73.0972 10.2821 73.0613 10.2565 73.0365 10.2215C73.0168 10.1888 73.0018 10.1534 72.9921 10.1164L72.589 8.67849C72.5501 8.52713 72.498 8.37943 72.4333 8.23707C72.3811 8.12072 72.3104 8.01345 72.2239 7.91934C72.1452 7.83551 72.0483 7.77049 71.9406 7.72916C71.8198 7.68533 71.6918 7.66409 71.5632 7.66655H71.1429L70.8892 10.1404C70.8856 10.1743 70.8708 10.2061 70.8472 10.2308C70.8138 10.2623 70.7728 10.2847 70.7281 10.2958C70.6581 10.315 70.5864 10.3274 70.5141 10.3329C70.4258 10.3416 70.3169 10.3457 70.1872 10.3452C70.0575 10.3447 69.9503 10.3406 69.8657 10.3329C69.7977 10.3277 69.7303 10.3153 69.6649 10.2958C69.6251 10.2852 69.5892 10.2634 69.5614 10.2331C69.5514 10.2201 69.5444 10.205 69.5409 10.189C69.5374 10.173 69.5375 10.1564 69.5412 10.1404L70.1483 4.24803C70.1486 4.18749 70.1621 4.12774 70.1879 4.07289C70.2137 4.01804 70.2511 3.96939 70.2977 3.9303C70.3889 3.86373 70.4998 3.82918 70.6129 3.83212H72.3913C72.6774 3.82957 72.9629 3.85808 73.2427 3.91715C73.479 3.96588 73.7053 4.05396 73.912 4.17768C74.1007 4.28945 74.2594 4.44479 74.3747 4.63052C74.49 4.81625 74.5585 5.02688 74.5744 5.24452L74.5712 5.2507ZM73.1517 5.49654C73.1422 5.40566 73.1158 5.31732 73.0738 5.23601C73.0315 5.15409 72.9708 5.08293 72.8964 5.02806C72.8084 4.96494 72.709 4.91903 72.6037 4.89277C72.4674 4.85895 72.3271 4.8431 72.1866 4.84561H71.4231L71.2371 6.68397H71.8776C72.0959 6.69073 72.3134 6.6542 72.5174 6.57652C72.6715 6.51611 72.8092 6.42081 72.9197 6.29821C73.0148 6.18929 73.083 6.05986 73.119 5.92018C73.1551 5.78175 73.1661 5.63882 73.1517 5.49654ZM83.3355 7.93094C83.3024 8.30771 83.2048 8.6761 83.0468 9.02019C82.9067 9.32078 82.7034 9.58807 82.4506 9.80409C82.1922 10.02 81.8921 10.1812 81.5688 10.278C81.1972 10.3865 80.8112 10.4387 80.4239 10.4326C80.0252 10.44 79.6279 10.3849 79.2464 10.2695C78.9389 10.1766 78.6589 10.0104 78.4308 9.78553C78.2146 9.56035 78.061 9.28333 77.9848 8.98154C77.8944 8.61546 77.8731 8.23594 77.9218 7.86213L78.3195 4.01765C78.3231 3.98443 78.337 3.95312 78.3592 3.92798C78.3913 3.89603 78.4317 3.87355 78.4759 3.86304C78.5449 3.84344 78.6154 3.82999 78.6868 3.82284C78.7962 3.81185 78.9061 3.80695 79.016 3.80815C79.1244 3.80702 79.2328 3.81193 79.3406 3.82284C79.4097 3.82931 79.4781 3.84278 79.5445 3.86304C79.5846 3.87331 79.6203 3.89607 79.6464 3.92798C79.6641 3.95441 79.6718 3.98615 79.6682 4.01765L79.2721 7.866C79.2423 8.0878 79.2497 8.31297 79.2939 8.53238C79.3284 8.70215 79.4034 8.86122 79.5126 8.99623C79.6176 9.11962 79.7538 9.21301 79.9072 9.2668C80.0878 9.3288 80.278 9.35863 80.4691 9.35493C80.6726 9.35727 80.8749 9.32403 81.0668 9.25675C81.2411 9.19559 81.4002 9.09836 81.5338 8.97149C81.6689 8.84037 81.7775 8.68476 81.8537 8.51306C81.9403 8.31684 81.9945 8.10799 82.014 7.8946L82.4117 4.01688C82.4152 3.98362 82.4291 3.95227 82.4514 3.9272C82.4818 3.89586 82.5203 3.8734 82.5627 3.86227C82.6307 3.84207 82.7006 3.8286 82.7712 3.82207C82.8796 3.81121 82.9885 3.80631 83.0973 3.80738C83.2039 3.80614 83.3105 3.81105 83.4164 3.82207C83.4841 3.82879 83.5508 3.84226 83.6157 3.86227C83.6558 3.87254 83.6915 3.8953 83.7176 3.9272C83.7355 3.95356 83.7432 3.98536 83.7394 4.01688L83.3355 7.93094ZM91.7807 5.42542C91.7996 5.62036 91.7983 5.81672 91.7768 6.0114C91.7544 6.21657 91.7052 6.41797 91.6305 6.61053C91.5535 6.80942 91.4487 6.99653 91.3191 7.16637C91.1767 7.34863 91.004 7.50548 90.8086 7.63021C90.5825 7.77434 90.3351 7.88258 90.0754 7.95104C89.7451 8.0353 89.4047 8.07483 89.0637 8.06854H88.3718L88.1585 10.1427C88.155 10.1766 88.1402 10.2084 88.1165 10.2331C88.0825 10.265 88.0406 10.2874 87.9951 10.2981C87.9243 10.3171 87.8519 10.3295 87.7787 10.3352C87.691 10.3439 87.5823 10.3481 87.4526 10.3476C87.3229 10.347 87.2173 10.3429 87.1359 10.3352C87.0675 10.3301 86.9999 10.3176 86.9343 10.2981C86.8945 10.2875 86.8585 10.2658 86.8308 10.2355C86.8209 10.2223 86.8141 10.2072 86.8107 10.1912C86.8073 10.1752 86.8076 10.1586 86.8113 10.1427L87.409 4.30601C87.411 4.23924 87.4265 4.17355 87.4546 4.11286C87.4827 4.05216 87.5228 3.9977 87.5725 3.95272C87.6768 3.87103 87.8072 3.82932 87.9398 3.83521H89.3898C89.5672 3.83521 89.7268 3.84114 89.8684 3.85299C90.0097 3.86498 90.1502 3.88433 90.2895 3.91097C90.4901 3.94734 90.685 4.00972 90.8693 4.09651C91.0367 4.17443 91.1902 4.27887 91.3238 4.40574C91.4538 4.5328 91.5593 4.6824 91.6351 4.84716C91.7159 5.03044 91.7651 5.22592 91.7807 5.42542ZM90.3798 5.57539C90.3669 5.42474 90.3113 5.28081 90.2194 5.16025C90.1206 5.03783 89.9838 4.95138 89.8303 4.91442C89.7505 4.88989 89.6683 4.87408 89.5851 4.86726C89.4954 4.8585 89.3957 4.85437 89.2863 4.85489H88.6917L88.4761 7.05427H89.0909C89.2578 7.05831 89.4242 7.03534 89.5836 6.98624C89.7078 6.94622 89.8246 6.88615 89.9291 6.80844C90.0243 6.73673 90.1055 6.64846 90.1688 6.54791C90.2312 6.44943 90.2806 6.34343 90.3159 6.2325C90.3505 6.12425 90.3727 6.01248 90.3821 5.89931C90.3901 5.79165 90.3883 5.68349 90.3766 5.57616L90.3798 5.57539ZM100.67 6.00676C100.701 6.31997 100.706 6.63513 100.685 6.94914C100.664 7.28501 100.61 7.61801 100.523 7.9433C100.435 8.27241 100.307 8.58945 100.14 8.88722C99.7963 9.51319 99.2321 9.99126 98.5556 10.23C98.1429 10.3744 97.7074 10.4441 97.2699 10.4357C96.8963 10.4405 96.5237 10.395 96.1624 10.3004C95.8563 10.2198 95.5698 10.0783 95.3203 9.88448C95.0814 9.69385 94.8886 9.45239 94.7561 9.1779C94.6068 8.86147 94.5156 8.52115 94.4868 8.17291C94.4544 7.84559 94.4489 7.51621 94.4704 7.18802C94.4916 6.84813 94.5482 6.51133 94.6393 6.18302C94.73 5.85473 94.862 5.53914 95.0323 5.24374C95.2026 4.94747 95.4215 4.68149 95.6799 4.45676C95.9559 4.21957 96.2743 4.036 96.6185 3.91561C97.0273 3.77674 97.4574 3.70977 97.8894 3.7177C98.2635 3.71254 98.6364 3.75885 98.9977 3.85531C99.3036 3.93749 99.5893 4.08086 99.8375 4.27663C100.076 4.47014 100.268 4.71388 100.399 4.99018C100.549 5.31055 100.641 5.6547 100.67 6.00676ZM99.2584 6.132C99.2412 5.94285 99.199 5.75676 99.1331 5.57848C99.0758 5.42184 98.9853 5.27923 98.8677 5.16025C98.7462 5.04191 98.5997 4.95187 98.4389 4.89663C98.2403 4.83109 98.0317 4.79997 97.8225 4.80464C97.5567 4.79749 97.2933 4.85509 97.0551 4.9724C96.8457 5.08064 96.6604 5.22972 96.5103 5.41073C96.3584 5.59637 96.2378 5.80523 96.1531 6.02918C96.0652 6.25821 95.9985 6.49472 95.9538 6.73577C95.9098 6.96534 95.8838 7.19796 95.876 7.43153C95.8693 7.63037 95.875 7.82943 95.8931 8.02757C95.9105 8.21752 95.9529 8.40439 96.0192 8.58341C96.0768 8.73912 96.1682 8.88032 96.2869 8.997C96.4098 9.11347 96.557 9.20163 96.7181 9.25521C96.919 9.31995 97.1295 9.35053 97.3407 9.34565C97.6044 9.35221 97.8658 9.29546 98.1027 9.18022C98.3123 9.07435 98.4978 8.92672 98.6475 8.74652C98.7982 8.5622 98.9181 8.35493 99.0024 8.13271C99.0906 7.9056 99.1576 7.67087 99.2024 7.43153C99.2466 7.20199 99.2727 6.96936 99.2802 6.73577C99.2855 6.53452 99.2782 6.33236 99.2584 6.132Z" fill="white"/>
</g>
<defs>
<clipPath id="clip0_105_40">
<rect width="237" height="46" fill="white"/>
</clipPath>
</defs>
</svg>
